<svg xmlns="http://www.w3.org/2000/svg" viewBox="0 0 1200 600" role="img" aria-labelledby="title desc"><title id="title">Лидогенерация для маркетингового агентства</title><desc id="desc">Бизнес-чат, диагностика и продажа</desc><rect width="1200" height="600" rx="28" fill="#15132a"/><path d="M100 420 315 300l200 90 280-180 300 90" fill="none" stroke="#8b5cf6" stroke-width="4"/><g fill="#24203f" stroke="#8b5cf6" stroke-width="2"><rect x="90" y="150" width="250" height="170" rx="18"/><rect x="475" y="150" width="250" height="170" rx="18"/><rect x="860" y="150" width="250" height="170" rx="18"/></g><g fill="#f2f1fb" font-family="Arial,sans-serif"><text x="123" y="203" font-size="18" fill="#bfa7ff">Источник</text><text x="123" y="253" font-size="30" font-weight="700">Чат</text><text x="123" y="286" font-size="15" fill="#aaa8bd">бизнес-контекст</text><text x="508" y="203" font-size="18" fill="#bfa7ff">Оффер</text><text x="508" y="253" font-size="30" font-weight="700">Диагностика</text><text x="508" y="286" font-size="15" fill="#aaa8bd">задача и стратегия</text><text x="893" y="203" font-size="18" fill="#9df35b">Результат</text><text x="893" y="253" font-size="30" font-weight="700">Продажа</text><text x="893" y="286" font-size="15" fill="#aaa8bd">подходящий проект</text></g><path d="M340 238h135m251 0h134" stroke="#9df35b" stroke-width="3"/><path d="m467 230 14 8-14 8m379-16 14 8-14 8" fill="none" stroke="#9df35b" stroke-width="3"/></svg>
