<svg xmlns="http://www.w3.org/2000/svg" viewBox="0 0 1200 600" role="img" aria-labelledby="title desc">
  <title id="title">Холодные продажи в B2B</title><desc id="desc">Контекст, первое сообщение и продолжение диалога</desc>
  <rect width="1200" height="600" rx="28" fill="#15132a"/><path d="M110 430 350 330l230 60 230-170 280 80" fill="none" stroke="#8b5cf6" stroke-width="4" opacity=".75"/><g fill="#24203f" stroke="#8b5cf6" stroke-width="2"><rect x="95" y="150" width="250" height="170" rx="18"/><rect x="475" y="150" width="250" height="170" rx="18"/><rect x="855" y="150" width="250" height="170" rx="18"/></g>
  <g fill="#f2f1fb" font-family="Arial, sans-serif"><text x="128" y="203" font-size="18" fill="#bfa7ff">01</text><text x="128" y="253" font-size="30" font-weight="700">Контекст</text><text x="128" y="286" font-size="15" fill="#aaa8bd">почему пишем этому человеку</text><text x="508" y="203" font-size="18" fill="#bfa7ff">02</text><text x="508" y="253" font-size="30" font-weight="700">Сообщение</text><text x="508" y="286" font-size="15" fill="#aaa8bd">одна понятная причина</text><text x="888" y="203" font-size="18" fill="#9df35b">03</text><text x="888" y="253" font-size="30" font-weight="700">Ответ</text><text x="888" y="286" font-size="15" fill="#aaa8bd">разговор продолжается</text></g>
  <path d="M345 238h130m251 0h129" stroke="#9df35b" stroke-width="3"/><path d="m466 230 14 8-14 8m376-16 14 8-14 8" fill="none" stroke="#9df35b" stroke-width="3"/>
</svg>
